<svg version="1.0" xmlns="http://www.w3.org/2000/svg" preserveAspectRatio="xMidYMid meet" viewBox="227.16 219.09 566.77 569.55">  <g transform="translate(0.000000,1024.000000) scale(0.100000,-0.100000)" fill="#ff0054" stroke="none"> <path d="M6200 8043 c-324 -33 -618 -152 -904 -367 -97 -72 -227 -196 -657 -626 -567 -566 -611 -615 -710 -803 -92 -175 -140 -342 -160 -553 -24 -252 25 -513 136 -733 75 -149 137 -224 394 -478 278 -273 308 -299 363 -314 92 -24 155 10 305 164 149 153 173 216 115 308 -16 24 -117 130 -226 234 -218 210 -273 275 -323 383 -51 109 -66 194 -60 337 4 105 9 131 39 210 63 170 84 193 672 778 297 296 567 559 599 584 79 61 226 135 328 164 73 21 105 24 249 24 140 0 177 -4 249 -23 304 -83 537 -313 627 -619 31 -107 42 -281 25 -393 -17 -109 -65 -243 -119 -335 -38 -64 -93 -127 -278 -315 -257 -260 -267 -275 -244 -360 10 -38 35 -68 164 -197 194 -194 236 -214 327 -154 62 41 412 399 486 496 179 238 288 486 329 750 16 104 18 356 4 464 -67 516 -390 969 -860 1206 -127 64 -211 95 -350 128 -164 40 -367 56 -520 40z"/> <path d="M5306 5979 c-45 -24 -229 -206 -251 -249 -26 -50 -30 -115 -10 -167 15 -40 67 -98 310 -343 351 -353 360 -367 360 -520 0 -85 -4 -103 -33 -170 -17 -41 -55 -104 -82 -139 -52 -67 -382 -408 -861 -892 -300 -302 -335 -331 -489 -393 -289 -118 -621 -82 -881 94 -75 52 -193 167 -238 233 -218 321 -221 724 -8 1037 17 25 114 131 217 235 232 237 233 238 205 394 -13 72 -21 177 -24 331 -6 245 -12 269 -67 290 -42 16 -80 0 -147 -64 -163 -153 -669 -679 -724 -751 -218 -288 -325 -635 -310 -1010 14 -370 130 -666 374 -955 240 -285 570 -481 943 -562 142 -30 478 -33 608 -5 260 56 520 185 732 362 82 69 262 251 640 645 135 140 297 309 361 375 64 66 149 156 190 200 41 43 90 96 109 116 49 52 84 69 122 58 21 -6 112 -88 272 -247 263 -261 280 -273 357 -252 35 10 71 40 207 173 90 89 173 179 183 199 45 88 24 121 -232 373 -118 115 -340 334 -494 485 -154 152 -370 363 -480 470 -721 704 -683 670 -769 670 -31 -1 -66 -9 -90 -21z"/> </g> </svg>